<svg version="1.1" viewBox="0.0 0.0 960.0 540.0" fill="none" stroke="none" stroke-linecap="square" stroke-miterlimit="10" xmlns:xlink="http://www.w3.org/1999/xlink" xmlns="http://www.w3.org/2000/svg"><clipPath id="g1e2d127c7c8_3_49.0"><path d="m0 0l960.0 0l0 540.0l-960.0 0l0 -540.0z" clip-rule="nonzero"/></clipPath><g clip-path="url(#g1e2d127c7c8_3_49.0)"><path fill="#1b212c" d="m0 0l960.0 0l0 540.0l-960.0 0z" fill-rule="evenodd"/><path fill="#0145ac" d="m42.45669 124.91353l-42.45669 -42.456696l0 -42.456688l84.91338 84.91338z" fill-rule="evenodd"/><path fill="#82c7a5" d="m108.96063 104.24028l-42.456696 -42.45669l-42.45669 0l84.91339 84.91339z" fill-rule="evenodd"/><path fill="#000000" fill-opacity="0.0" d="m110.50394 237.48557l738.99207 0l0 76.409454l-738.99207 0z" fill-rule="evenodd"/><path fill="#ffffff" d="m380.26382 279.76556l0 -19.6875l-7.765625 0l0 -4.578125l21.140625 0l0 4.578125l-7.765625 0l0 19.6875l-5.609375 0zm25.261353 0.28125q-3.1875 0 -5.59375 -1.25q-2.40625 -1.25 -3.734375 -3.40625q-1.3125 -2.171875 -1.3125 -4.953125q0 -2.796875 1.296875 -4.96875q1.296875 -2.171875 3.546875 -3.390625q2.265625 -1.234375 5.109375 -1.234375q2.734375 0 4.921875 1.171875q2.203125 1.15625 3.484375 3.328125q1.296875 2.15625 1.296875 5.171875q0 0.3125 -0.046875 0.71875q-0.03125 0.390625 -0.0625 0.734375l-15.140625 0l0 -3.15625l12.296875 0l-2.078125 0.9375q0 -1.453125 -0.59375 -2.53125q-0.578125 -1.078125 -1.625 -1.671875q-1.046875 -0.609375 -2.421875 -0.609375q-1.390625 0 -2.453125 0.609375q-1.046875 0.59375 -1.640625 1.6875q-0.59375 1.09375 -0.59375 2.578125l0 0.84375q0 1.515625 0.671875 2.6875q0.6875 1.15625 1.90625 1.765625q1.234375 0.59375 2.90625 0.59375q1.484375 0 2.609375 -0.4375q1.125 -0.453125 2.0625 -1.359375l2.875 3.125q-1.28125 1.453125 -3.21875 2.234375q-1.9375 0.78125 -4.46875 0.78125zm18.883728 0q-2.390625 0 -4.59375 -0.5625q-2.203125 -0.578125 -3.484375 -1.453125l1.8125 -3.875q1.28125 0.796875 3.03125 1.296875q1.75 0.5 3.4375 0.5q1.875 0 2.65625 -0.453125q0.78125 -0.453125 0.78125 -1.25q0 -0.65625 -0.609375 -0.984375q-0.609375 -0.328125 -1.609375 -0.5q-1.0 -0.171875 -2.203125 -0.34375q-1.1875 -0.171875 -2.40625 -0.46875q-1.21875 -0.296875 -2.21875 -0.875q-1.0 -0.59375 -1.609375 -1.59375q-0.609375 -1.015625 -0.609375 -2.609375q0 -1.765625 1.015625 -3.109375q1.03125 -1.359375 2.96875 -2.140625q1.9375 -0.78125 4.640625 -0.78125q1.90625 0 3.875 0.421875q1.984375 0.40625 3.3125 1.203125l-1.8125 3.84375q-1.34375 -0.796875 -2.71875 -1.078125q-1.359375 -0.296875 -2.65625 -0.296875q-1.796875 0 -2.625 0.484375q-0.828125 0.484375 -0.828125 1.25q0 0.6875 0.59375 1.03125q0.609375 0.34375 1.609375 0.5625q1.015625 0.203125 2.203125 0.359375q1.203125 0.15625 2.40625 0.46875q1.21875 0.3125 2.203125 0.890625q1.0 0.5625 1.625 1.546875q0.625 0.984375 0.625 2.578125q0 1.734375 -1.046875 3.078125q-1.046875 1.328125 -3.0 2.09375q-1.953125 0.765625 -4.765625 0.765625zm-0.875 7.765625q-0.890625 0 -1.75 -0.21875q-0.84375 -0.203125 -1.46875 -0.515625l0.828125 -2.328125q0.515625 0.25 1.0625 0.390625q0.5625 0.140625 1.1875 0.140625q0.96875 0 1.390625 -0.3125q0.421875 -0.3125 0.421875 -0.796875q0 -0.453125 -0.40625 -0.734375q-0.390625 -0.28125 -1.296875 -0.28125l-1.171875 0l0.890625 -3.671875l2.875 0l-0.484375 2.015625q1.5625 0.171875 2.28125 0.984375q0.734375 0.8125 0.734375 1.890625q0 1.5625 -1.390625 2.5q-1.375 0.9375 -3.703125 0.9375zm22.26184 -7.765625q-3.1875 0 -5.59375 -1.25q-2.40625 -1.25 -3.734375 -3.40625q-1.3125 -2.171875 -1.3125 -4.953125q0 -2.796875 1.296875 -4.96875q1.296875 -2.171875 3.546875 -3.390625q2.265625 -1.234375 5.109375 -1.234375q2.734375 0 4.921875 1.171875q2.203125 1.15625 3.484375 3.328125q1.296875 2.15625 1.296875 5.171875q0 0.3125 -0.046875 0.71875q-0.03125 0.390625 -0.0625 0.734375l-15.140625 0l0 -3.15625l12.296875 0l-2.078125 0.9375q0 -1.453125 -0.59375 -2.53125q-0.578125 -1.078125 -1.625 -1.671875q-1.046875 -0.609375 -2.421875 -0.609375q-1.390625 0 -2.453125 0.609375q-1.046875 0.59375 -1.640625 1.6875q-0.59375 1.09375 -0.59375 2.578125l0 0.84375q0 1.515625 0.671875 2.6875q0.6875 1.15625 1.90625 1.765625q1.234375 0.59375 2.90625 0.59375q1.484375 0 2.609375 -0.4375q1.125 -0.453125 2.0625 -1.359375l2.875 3.125q-1.28125 1.453125 -3.21875 2.234375q-1.9375 0.78125 -4.46875 0.78125zm17.086884 -4.09375l0.140625 -6.578125l8.6875 -8.25l6.453125 0l-8.359375 8.484375l-2.796875 2.296875l-4.125 4.046875zm-4.46875 3.8125l0 -25.71875l5.40625 0l0 25.71875l-5.40625 0zm13.890625 0l-6.3125 -7.828125l3.40625 -4.203125l9.453125 12.03125l-6.546875 0zm13.451263 -3.8125l0.140625 -6.578125l8.6875 -8.25l6.453125 0l-8.359375 8.484375l-2.796875 2.296875l-4.125 4.046875zm-4.46875 3.8125l0 -25.71875l5.40625 0l0 25.71875l-5.40625 0zm13.890625 0l-6.3125 -7.828125l3.40625 -4.203125l9.453125 12.03125l-6.546875 0zm16.84195 0.28125q-2.3125305 0 -4.1406555 -0.90625q-1.8125 -0.90625 -2.828125 -2.75q-1.0 -1.859375 -1.0 -4.734375l0 -10.53125l5.40625 0l0 9.734375q0 2.328125 0.984375 3.421875q0.984375 1.078125 2.7969055 1.078125q1.25 0 2.21875 -0.53125q0.96875 -0.53125 1.515625 -1.65625q0.5625 -1.140625 0.5625 -2.828125l0 -9.21875l5.40625 0l0 18.640625l-5.125 0l0 -5.125l0.921875 1.484375q-0.921875 1.9375 -2.75 2.9375q-1.8125 0.984375 -3.96875 0.984375zm4.953125 -21.484375q-1.0 0 -1.703125 -0.65625q-0.6875 -0.671875 -0.6875 -1.734375q0 -1.078125 0.6875 -1.734375q0.703125 -0.671875 1.703125 -0.671875q1.015625 0 1.71875 0.671875q0.71875 0.65625 0.71875 1.734375q0 1.0625 -0.71875 1.734375q-0.703125 0.65625 -1.71875 0.65625zm-7.0000305 0q-1.0 0 -1.71875 -0.65625q-0.703125 -0.671875 -0.703125 -1.734375q0 -1.078125 0.703125 -1.734375q0.71875 -0.671875 1.71875 -0.671875q1.015625 0 1.703125 0.671875q0.6875305 0.65625 0.6875305 1.734375q0 1.0625 -0.6875305 1.734375q-0.6875 0.65625 -1.703125 0.65625zm17.996368 21.203125l0 -18.640625l5.15625 0l0 5.265625l-0.71875 -1.53125q0.828125 -1.96875 2.65625 -2.984375q1.84375 -1.03125 4.484375 -1.03125l0 4.984375q-0.359375 -0.03125 -0.640625 -0.046875q-0.265625 -0.015625 -0.578125 -0.015625q-2.21875 0 -3.59375 1.265625q-1.359375 1.265625 -1.359375 3.9375l0 8.796875l-5.40625 0zm14.93689 0l0 -25.71875l5.40625 0l0 25.71875l-5.40625 0zm19.681519 0.28125q-3.1875 0 -5.59375 -1.25q-2.40625 -1.25 -3.734375 -3.40625q-1.3125 -2.171875 -1.3125 -4.953125q0 -2.796875 1.296875 -4.96875q1.296875 -2.171875 3.546875 -3.390625q2.265625 -1.234375 5.109375 -1.234375q2.734375 0 4.921875 1.171875q2.203125 1.15625 3.484375 3.328125q1.296875 2.15625 1.296875 5.171875q0 0.3125 -0.046875 0.71875q-0.03125 0.390625 -0.0625 0.734375l-15.140625 0l0 -3.15625l12.296875 0l-2.078125 0.9375q0 -1.453125 -0.59375 -2.53125q-0.578125 -1.078125 -1.625 -1.671875q-1.046875 -0.609375 -2.421875 -0.609375q-1.390625 0 -2.453125 0.609375q-1.046875 0.59375 -1.640625 1.6875q-0.59375 1.09375 -0.59375 2.578125l0 0.84375q0 1.515625 0.671875 2.6875q0.6875 1.15625 1.90625 1.765625q1.234375 0.59375 2.90625 0.59375q1.484375 0 2.609375 -0.4375q1.125 -0.453125 2.0625 -1.359375l2.875 3.125q-1.28125 1.453125 -3.21875 2.234375q-1.9375 0.78125 -4.46875 0.78125zm12.618164 -0.28125l0 -18.640625l5.15625 0l0 5.265625l-0.71875 -1.53125q0.828125 -1.96875 2.65625 -2.984375q1.84375 -1.03125 4.484375 -1.03125l0 4.984375q-0.359375 -0.03125 -0.640625 -0.046875q-0.265625 -0.015625 -0.578125 -0.015625q-2.21875 0 -3.59375 1.265625q-1.359375 1.265625 -1.359375 3.9375l0 8.796875l-5.40625 0z" fill-rule="nonzero"/></g></svg>